<mxfile host="app.diagrams.net" modified="2023-08-25T16:51:34.387Z" agent="Mozilla/5.0 (X11; Linux x86_64; rv:109.0) Gecko/20100101 Firefox/111.0" version="21.6.9" etag="TVW_omCEPVEIDu1WI_sR" type="github">
  <diagram name="PÃ¡gina-1" id="gPHcdn5TLsgSi857YUvv">
    <mxGraphModel>
      <root>
        <mxCell id="0" />
        <mxCell id="1" parent="0" />
      </root>
    </mxGraphModel>
  </diagram>
</mxfile>
